<svg width="24" height="24" viewBox="0 0 19 19" fill="none" xmlns="http://www.w3.org/2000/svg">
<path d="M13 12C10.79 13.333 7.208 13.333 5 12M16.0003 5.71001L10.6673 1.56201C10.1993 1.19792 9.62323 1.00024 9.03027 1.00024C8.43732 1.00024 7.86128 1.19792 7.39327 1.56201L2.05927 5.71001C1.73872 5.9593 1.47937 6.27854 1.30103 6.64336C1.12269 7.00818 1.03008 7.40894 1.03027 7.81501V15.015C1.03027 15.5454 1.24099 16.0542 1.61606 16.4292C1.99113 16.8043 2.49984 17.015 3.03027 17.015H15.0303C15.5607 17.015 16.0694 16.8043 16.4445 16.4292C16.8196 16.0542 17.0303 15.5454 17.0303 15.015V7.81501C17.0303 6.99201 16.6503 6.21501 16.0003 5.71001Z" stroke="black" stroke-width="2" stroke-linecap="round" stroke-linejoin="round"/>
</svg>
