<svg width="80" height="80" viewBox="0 0 80 80" fill="none" xmlns="http://www.w3.org/2000/svg">
<g id="confetti">
<g id="Dark tone">
<path fill-rule="evenodd" clip-rule="evenodd" d="M21.25 8.75C21.25 5.98858 23.4886 3.75 26.25 3.75C29.0114 3.75 31.25 5.98858 31.25 8.75C31.25 11.5114 29.0114 13.75 26.25 13.75C23.4886 13.75 21.25 11.5114 21.25 8.75Z" fill="#372A4D"/>
<path d="M53.0177 0.65976C54.6834 0.0412195 56.6462 0.667666 57.5133 2.33713C60.9861 9.02369 60.6711 14.6496 57.9742 19.7604C57.3372 20.9677 56.6293 21.9197 55.8922 22.6989C64.7388 29.6236 70.8177 40.9445 71.4291 52.1934C72.3415 52.3454 73.2008 52.809 73.8284 53.5765L76.057 56.3016C77.4621 58.0198 77.2129 60.7722 75.043 61.9148C73.4869 62.7341 71.7681 63.3997 69.9251 63.766C67.3207 70.5069 59.5751 73.4234 52.1305 73.4424L13.2093 73.5416C8.60925 73.5533 5.4755 68.8898 7.23582 64.6522L22.2882 28.4167C24.9971 21.8956 30.1665 16.0073 37.2451 15.9484C40.0773 15.9248 42.838 16.3551 45.4836 17.1673C45.9803 16.8004 46.4952 16.377 47.0349 15.8677C49.0666 13.9502 49.548 12.2369 49.4834 10.7742C49.4144 9.21136 48.7236 7.76306 48.0258 6.35716C47.0871 4.46595 48.1342 2.47326 49.9247 1.80835L53.0177 0.65976Z" fill="#372A4D"/>
<path d="M77.5 37.5C77.5 38.8807 76.3807 40 75 40C73.6193 40 72.5 38.8807 72.5 37.5C72.5 36.1193 73.6193 35 75 35C76.3807 35 77.5 36.1193 77.5 37.5Z" fill="#372A4D"/>
<path d="M8.07816 23.369C8.55449 22.2103 10.1955 22.2103 10.6718 23.369L11.4571 25.2792C11.5995 25.6255 11.8745 25.9005 12.2208 26.0429L14.131 26.8282C15.2897 27.3045 15.2897 28.9455 14.131 29.4218L12.2208 30.2071C11.8745 30.3495 11.5995 30.6245 11.4571 30.9708L10.6718 32.881C10.1955 34.0397 8.55449 34.0397 8.07816 32.881L7.29291 30.9708C7.15053 30.6245 6.87553 30.3495 6.52919 30.2071L4.61903 29.4218C3.46032 28.9455 3.46032 27.3045 4.61903 26.8282L6.52919 26.0429C6.87553 25.9005 7.15053 25.6255 7.29291 25.2792L8.07816 23.369Z" fill="#372A4D"/>
<path d="M69.3075 15.8828C69.7915 14.7057 71.4585 14.7057 71.9425 15.8828L72.35 16.8742C72.4946 17.226 72.774 17.5054 73.1258 17.65L74.1172 18.0576C75.2943 18.5415 75.2943 20.2086 74.1172 20.6925L73.1258 21.1C72.774 21.2446 72.4946 21.524 72.35 21.8758L71.9425 22.8672C71.4585 24.0443 69.7915 24.0443 69.3075 22.8672L68.9 21.8758C68.7554 21.524 68.476 21.2446 68.1242 21.1L67.1328 20.6925C65.9557 20.2086 65.9557 18.5415 67.1328 18.0576L68.1242 17.65C68.476 17.5054 68.7554 17.226 68.9 16.8742L69.3075 15.8828Z" fill="#372A4D"/>
</g>
<g id="Mid tone">
<path d="M17.9317 45.4212L24.597 29.3758C24.9045 28.6355 25.2401 27.9169 25.6021 27.225C23.2845 34.6628 25.4017 45.2024 31.8377 54.6635C38.5425 64.5196 48.0713 70.4662 56.0683 70.6342C54.7969 70.8358 53.474 70.9389 52.1243 70.9423L31.9162 70.9939C17.4396 63.2788 16.7083 50.438 17.9317 45.4212Z" fill="#8363EE"/>
<path d="M15.1994 51.9986L9.54467 65.6113C8.4736 68.1896 10.3773 71.0488 13.203 71.0416L27.1288 71.0061C18.9194 65.3274 15.8981 57.9002 15.1994 51.9986Z" fill="#8363EE"/>
</g>
<g id="Light tone">
<path d="M23.75 8.75C23.75 7.36929 24.8693 6.25 26.25 6.25C27.6307 6.25 28.75 7.36929 28.75 8.75C28.75 10.1307 27.6307 11.25 26.25 11.25C24.8693 11.25 23.75 10.1307 23.75 8.75Z" fill="#F1EEE1"/>
<path d="M35 48.75C35 47.3693 36.1193 46.25 37.5 46.25C38.8807 46.25 40 47.3693 40 48.75C40 50.1307 38.8807 51.25 37.5 51.25C36.1193 51.25 35 50.1307 35 48.75Z" fill="#F1EEE1"/>
<path d="M53.8881 3.00338C54.4701 2.78722 55.0566 3.03103 55.2946 3.4894C58.4063 9.48059 58.0609 14.2393 55.7632 18.5937C54.3531 21.266 52.7883 22.2124 50.9476 23.3257C50.2904 23.7232 49.598 24.142 48.865 24.6681C47.4923 25.6534 46.1621 26.9424 45.0199 29.0781C43.8927 31.1857 42.9754 34.067 42.3294 38.2049C42.1744 39.1975 41.1056 39.6696 40.3483 39.2322L36.7227 37.1378C36.2509 36.8653 36.0174 36.3255 36.1341 35.8134C38.0755 27.2907 39.7901 24.3204 41.5125 22.7378C42.3042 22.0103 43.1294 21.5392 44.1788 20.9402C44.3034 20.869 44.4312 20.7961 44.5624 20.7207C45.7834 20.0194 47.181 19.1673 48.7508 17.6858C51.2518 15.3255 52.0811 12.93 51.981 10.6639C51.8859 8.51089 50.9474 6.62024 50.2772 5.27009L50.2651 5.24565C50.1494 5.0126 50.1612 4.80747 50.2369 4.63699C50.3173 4.45576 50.4956 4.26317 50.795 4.15197L53.8881 3.00338Z" fill="#F1EEE1"/>
<path d="M53.0576 35.8828C53.5415 34.7057 55.2085 34.7057 55.6924 35.8828L56.1 36.8742C56.2446 37.226 56.524 37.5054 56.8758 37.65L57.8672 38.0576C59.0443 38.5415 59.0443 40.2086 57.8672 40.6925L56.8758 41.1C56.524 41.2446 56.2446 41.524 56.1 41.8758L55.6924 42.8672C55.2085 44.0443 53.5415 44.0443 53.0576 42.8672L52.65 41.8758C52.5054 41.524 52.226 41.2446 51.8742 41.1L50.8828 40.6925C49.7057 40.2086 49.7057 38.5415 50.8828 38.0576L51.8742 37.65C52.226 37.5054 52.5054 37.226 52.65 36.8742L53.0576 35.8828Z" fill="#F1EEE1"/>
<path d="M47.3609 55.3253C48.7337 54.4774 50.78 53.3854 52.9541 52.8061C55.1422 52.2231 57.2655 52.2077 58.9818 53.2333C61.0502 54.4694 62.6621 55.3854 64.3715 55.6857C66.1494 55.9979 67.8788 55.628 70.1735 54.7462C70.8164 54.4992 71.5049 54.6844 71.8931 55.1591L74.1217 57.8843C74.6759 58.562 74.4469 59.4033 73.8783 59.7027C69.7462 61.8784 64.526 62.765 58.8184 58.9599C57.4424 58.0426 55.8926 57.9826 54.5064 58.2709C53.1319 58.5568 51.8103 59.2034 50.7257 59.8604C49.6487 60.5129 48.3422 60.0685 47.9775 59.2124L46.9573 56.817C46.6983 56.2089 46.9092 55.6042 47.3609 55.3253Z" fill="#F1EEE1"/>
</g>
</g>
</svg>
