<svg width="21" height="20" viewBox="0 0 21 20" fill="none" xmlns="http://www.w3.org/2000/svg">
<path d="M10.637 17.5H6.47038C6.02835 17.5 5.60443 17.3244 5.29187 17.0118C4.97931 16.6993 4.80371 16.2754 4.80371 15.8333V10.8333C4.80371 10.3913 4.97931 9.96738 5.29187 9.65482C5.60443 9.34226 6.02835 9.16667 6.47038 9.16667H14.8037C15.2457 9.16667 15.6697 9.34226 15.9822 9.65482C16.2948 9.96738 16.4704 10.3913 16.4704 10.8333M7.30371 9.16667V5.83333C7.30371 4.94928 7.6549 4.10143 8.28002 3.47631C8.90514 2.85119 9.75299 2.5 10.637 2.5C11.5211 2.5 12.3689 2.85119 12.9941 3.47631C13.6192 4.10143 13.9704 4.94928 13.9704 5.83333V9.16667M13.9704 18.3333L18.137 14.1667M18.137 14.1667V17.9167M18.137 14.1667H14.387M9.80371 13.3333C9.80371 13.5543 9.89151 13.7663 10.0478 13.9226C10.2041 14.0789 10.416 14.1667 10.637 14.1667C10.8581 14.1667 11.07 14.0789 11.2263 13.9226C11.3826 13.7663 11.4704 13.5543 11.4704 13.3333C11.4704 13.1123 11.3826 12.9004 11.2263 12.7441C11.07 12.5878 10.8581 12.5 10.637 12.5C10.416 12.5 10.2041 12.5878 10.0478 12.7441C9.89151 12.9004 9.80371 13.1123 9.80371 13.3333Z" stroke="#667085" stroke-width="2" stroke-linecap="round" stroke-linejoin="round"/>
</svg>
