<svg width="24" height="24" viewBox="0 0 24 24" fill="none" xmlns="http://www.w3.org/2000/svg">
<g id="tabler-icon-lock">
<path id="Vector" d="M8 11.0001V7.00006C8 5.9392 8.42143 4.92178 9.17157 4.17163C9.92172 3.42149 10.9391 3.00006 12 3.00006C13.0609 3.00006 14.0783 3.42149 14.8284 4.17163C15.5786 4.92178 16 5.9392 16 7.00006V11.0001M5 13.0001C5 12.4696 5.21071 11.9609 5.58579 11.5858C5.96086 11.2108 6.46957 11.0001 7 11.0001H17C17.5304 11.0001 18.0391 11.2108 18.4142 11.5858C18.7893 11.9609 19 12.4696 19 13.0001V19.0001C19 19.5305 18.7893 20.0392 18.4142 20.4143C18.0391 20.7893 17.5304 21.0001 17 21.0001H7C6.46957 21.0001 5.96086 20.7893 5.58579 20.4143C5.21071 20.0392 5 19.5305 5 19.0001V13.0001ZM11 16.0001C11 16.2653 11.1054 16.5196 11.2929 16.7072C11.4804 16.8947 11.7348 17.0001 12 17.0001C12.2652 17.0001 12.5196 16.8947 12.7071 16.7072C12.8946 16.5196 13 16.2653 13 16.0001C13 15.7348 12.8946 15.4805 12.7071 15.293C12.5196 15.1054 12.2652 15.0001 12 15.0001C11.7348 15.0001 11.4804 15.1054 11.2929 15.293C11.1054 15.4805 11 15.7348 11 16.0001Z" stroke="#F04438" stroke-width="2" stroke-linecap="round" stroke-linejoin="round"/>
</g>
</svg>
