<svg width="120" height="120" viewBox="0 0 120 120" fill="none" xmlns="http://www.w3.org/2000/svg">
<g id="no-transaction 2" clip-path="url(#clip0_1024_4572)">
<path id="Vector" d="M59.999 105.792C85.2893 105.792 105.791 85.2902 105.791 60C105.791 34.7098 85.2893 14.208 59.999 14.208C34.7088 14.208 14.207 34.7098 14.207 60C14.207 85.2902 34.7088 105.792 59.999 105.792Z" fill="#18181B"/>
<path id="Vector_2" fill-rule="evenodd" clip-rule="evenodd" d="M98.9756 34.472L98.8796 35.792L98.3276 43.688L90.5436 43.144L86.8956 97.064C79.3436 102.552 70.0476 105.792 59.9996 105.792C48.3356 105.792 37.6876 101.432 29.5996 94.248C30.6556 78.496 32.5356 50.488 33.4556 37.44C33.5996 35.44 34.5276 33.576 36.0396 32.264C37.5516 30.952 39.5276 30.288 41.5276 30.432L91.1916 33.912V33.928L97.9836 34.408L98.9756 34.472Z" fill="#8363EE"/>
<path id="Vector_3" d="M37.1256 78.2994L36.7188 84.1174L63.662 86.0015L64.0689 80.1835L37.1256 78.2994Z" fill="#45268F"/>
<path id="Vector_4" d="M38.0045 66.5143L37.5977 72.3323L51.2768 73.2888L51.6836 67.4708L38.0045 66.5143Z" fill="#45268F"/>
<path id="Vector_5" d="M38.7975 54.2959L38.3906 60.1139L52.0059 61.066L52.4128 55.248L38.7975 54.2959Z" fill="#45268F"/>
<path id="Vector_6" d="M36.2916 90.2077L35.8848 96.0257L72.1018 98.5582L72.5086 92.7402L36.2916 90.2077Z" fill="#45268F"/>
<path id="Vector_7" fill-rule="evenodd" clip-rule="evenodd" d="M88.9764 65.504L58.4404 63.36C57.9524 63.328 57.5284 63.008 57.3684 62.544C57.2084 62.08 57.3284 61.568 57.6884 61.232C61.3844 57.752 69.1444 50.448 73.0164 46.816C73.3844 46.472 73.9284 46.384 74.3844 46.6C74.8404 46.816 75.1204 47.288 75.0884 47.8L74.5284 55.776L89.5924 56.832L88.9764 65.504ZM90.6324 41.28C90.7684 39.328 91.6804 37.504 93.1524 36.224C94.6324 34.936 96.5604 34.296 98.5124 34.432C102.12 34.688 104.848 37.808 104.616 41.416C104.336 45.728 104.016 50.584 104.016 50.584L90.0484 49.6C90.0484 49.6 90.3524 45.352 90.6324 41.28Z" fill="#45268F"/>
<path id="Vector_8" fill-rule="evenodd" clip-rule="evenodd" d="M58.5439 61.88C58.0559 61.848 57.6319 61.528 57.4719 61.064C57.3119 60.6 57.4319 60.088 57.7919 59.752C61.4879 56.272 69.2479 48.968 73.1199 45.336C73.4879 44.992 74.0319 44.904 74.4879 45.12C74.9439 45.336 75.2239 45.816 75.1919 46.32L74.6319 54.296L96.6079 55.84C96.8399 55.856 97.0559 55.96 97.2079 56.136C97.3599 56.312 97.4399 56.536 97.4239 56.768C97.3039 58.432 97.0559 62.024 96.9359 63.688C96.9199 63.92 96.8079 64.136 96.6399 64.288C96.4639 64.44 96.2399 64.52 95.9999 64.504L58.5439 61.88Z" fill="white"/>
<path id="Vector_9" fill-rule="evenodd" clip-rule="evenodd" d="M79.1514 77.872L57.1754 76.328C56.9434 76.312 56.7274 76.2 56.5754 76.032C56.4234 75.856 56.3434 75.624 56.3594 75.392C56.4794 73.728 56.7274 70.136 56.8474 68.472C56.8634 68.24 56.9674 68.024 57.1434 67.872C57.3194 67.72 57.5434 67.64 57.7834 67.656L88.6714 69.824L87.9594 79.96L80.6554 86.824C80.2874 87.168 79.7434 87.256 79.2874 87.04C78.8314 86.824 78.5514 86.344 78.5834 85.84L79.1514 77.872Z" fill="#45268F"/>
<path id="Vector_10" fill-rule="evenodd" clip-rule="evenodd" d="M79.2393 76.544L57.2633 75C57.0313 74.984 56.8153 74.872 56.6633 74.704C56.5113 74.528 56.4313 74.296 56.4473 74.072C56.5673 72.408 56.8153 68.816 56.9353 67.152C56.9513 66.92 57.0633 66.704 57.2393 66.552C57.4153 66.4 57.6473 66.32 57.8793 66.336L95.3273 68.96C95.8153 68.992 96.2393 69.312 96.3993 69.776C96.5673 70.24 96.4393 70.752 96.0873 71.088C92.3913 74.568 84.6313 81.872 80.7593 85.504C80.3913 85.848 79.8473 85.936 79.3913 85.72C78.9353 85.504 78.6553 85.032 78.6953 84.52L79.2393 76.544Z" fill="white"/>
<path id="Vector_11" d="M30.1285 53.96C38.7706 53.96 45.7765 46.9542 45.7765 38.312C45.7765 29.6699 38.7706 22.664 30.1285 22.664C21.4863 22.664 14.4805 29.6699 14.4805 38.312C14.4805 46.9542 21.4863 53.96 30.1285 53.96Z" fill="#F38744"/>
<path id="Vector_12" d="M33.4889 39.392C33.4889 37.96 33.2809 36.848 32.8649 36.064C32.4489 35.28 31.8569 34.888 31.0889 34.888C30.3209 34.888 29.7369 35.28 29.3369 36.064C28.9369 36.848 28.7369 37.96 28.7369 39.392C28.7369 40.824 28.9369 41.944 29.3369 42.736C29.7369 43.528 30.3209 43.92 31.0889 43.92C31.8569 43.92 32.4489 43.528 32.8649 42.736C33.2809 41.944 33.4889 40.824 33.4889 39.392ZM37.6729 39.392C37.6729 40.648 37.5129 41.768 37.1849 42.744C36.8569 43.728 36.4089 44.544 35.8249 45.208C35.2409 45.872 34.5529 46.368 33.7449 46.712C32.9369 47.056 32.0649 47.224 31.1129 47.224C30.1529 47.224 29.2649 47.056 28.4569 46.712C27.6489 46.368 26.9529 45.872 26.3769 45.208C25.8009 44.544 25.3449 43.728 25.0249 42.744C24.7049 41.768 24.5449 40.648 24.5449 39.392C24.5449 38.136 24.7049 37.024 25.0249 36.048C25.3449 35.08 25.7929 34.264 26.3769 33.6C26.9609 32.936 27.6489 32.44 28.4569 32.096C29.2649 31.752 30.1529 31.584 31.1129 31.584C32.0569 31.584 32.9369 31.76 33.7449 32.096C34.5529 32.44 35.2489 32.936 35.8249 33.6C36.4009 34.264 36.8569 35.08 37.1849 36.048C37.5129 37.024 37.6729 38.136 37.6729 39.392Z" fill="#925129"/>
<path id="Vector_13" d="M32.6725 37.96C32.6725 36.528 32.4645 35.416 32.0485 34.632C31.6325 33.848 31.0405 33.456 30.2725 33.456C29.5045 33.456 28.9205 33.848 28.5205 34.632C28.1205 35.416 27.9205 36.528 27.9205 37.96C27.9205 39.392 28.1205 40.512 28.5205 41.304C28.9205 42.096 29.5045 42.488 30.2725 42.488C31.0405 42.488 31.6325 42.096 32.0485 41.304C32.4645 40.512 32.6725 39.4 32.6725 37.96ZM36.8565 37.96C36.8565 39.216 36.6965 40.336 36.3685 41.312C36.0405 42.296 35.5925 43.112 35.0085 43.776C34.4245 44.44 33.7365 44.936 32.9285 45.28C32.1205 45.624 31.2485 45.792 30.2965 45.792C29.3365 45.792 28.4485 45.624 27.6405 45.28C26.8325 44.936 26.1365 44.44 25.5605 43.776C24.9845 43.112 24.5285 42.296 24.2085 41.312C23.8885 40.336 23.7285 39.216 23.7285 37.96C23.7285 36.704 23.8885 35.592 24.2085 34.616C24.5285 33.648 24.9765 32.832 25.5605 32.168C26.1445 31.504 26.8325 31.008 27.6405 30.664C28.4485 30.32 29.3365 30.152 30.2965 30.152C31.2405 30.152 32.1205 30.328 32.9285 30.664C33.7365 31.008 34.4325 31.504 35.0085 32.168C35.5845 32.832 36.0405 33.648 36.3685 34.616C36.6885 35.592 36.8565 36.704 36.8565 37.96Z" fill="white"/>
<path id="Vector_14" d="M11.328 30.92C11.288 30.92 11.24 30.912 11.192 30.904L3.24799 28.976C2.94399 28.904 2.75999 28.6 2.83199 28.296C2.90399 27.992 3.20799 27.808 3.51199 27.88L11.456 29.808C11.76 29.88 11.944 30.184 11.872 30.488C11.808 30.752 11.576 30.92 11.328 30.92ZM20.184 21.824C19.96 21.824 19.744 21.688 19.664 21.464L17.248 15.168C17.136 14.88 17.28 14.552 17.568 14.448C17.856 14.336 18.184 14.48 18.288 14.768L20.704 21.064C20.816 21.352 20.672 21.68 20.384 21.784C20.32 21.808 20.256 21.824 20.184 21.824ZM14.04 25.592C13.896 25.592 13.752 25.536 13.64 25.424L6.104 17.888C5.888 17.672 5.888 17.312 6.104 17.096C6.31999 16.88 6.67999 16.88 6.89599 17.096L14.432 24.632C14.648 24.848 14.648 25.208 14.432 25.424C14.32 25.536 14.176 25.592 14.04 25.592Z" fill="#F38744"/>
</g>
<defs>
<clipPath id="clip0_1024_4572">
<rect width="120" height="120" fill="white"/>
</clipPath>
</defs>
</svg>
