<svg width="383" height="78" viewBox="0 0 383 78" fill="none" xmlns="http://www.w3.org/2000/svg">
<path d="M104.423 30.4142C104.423 31.2292 104.8 32.0282 105.552 32.8112C106.305 33.5943 107.345 34.2095 108.674 34.6569C110.002 35.1044 111.499 35.5198 113.164 35.9034C116.974 36.8462 119.799 38.0926 121.64 39.6427C123.498 41.1768 124.426 43.3341 124.426 46.1147V46.1626C124.426 49.4705 123.201 52.0513 120.752 53.905C118.319 55.7425 115.237 56.6616 111.507 56.6616C104.528 56.6616 99.5891 54.2965 96.6914 49.5664L101.614 46.618C104.335 49.926 107.681 51.5719 111.651 51.5559C113.188 51.5559 114.621 51.0845 115.949 50.1417C117.278 49.1989 117.943 48.0802 117.943 46.7858C117.943 45.4915 117.39 44.4368 116.285 43.6218C115.197 42.8068 112.828 41.9918 109.178 41.1768C105.528 40.3618 102.759 39.2033 100.87 37.7012C98.9968 36.1831 98.0602 33.9458 98.0602 30.9895V30.9416C98.0602 27.9054 99.2448 25.5163 101.614 23.7745C103.999 22.0167 106.953 21.1378 110.475 21.1378C116.206 21.1218 120.496 23.0474 123.345 26.9146C121.248 28.2889 119.696 29.3196 118.687 30.0067C116.222 27.4499 113.364 26.1795 110.115 26.1955C108.706 26.1955 107.401 26.595 106.2 27.394C105.016 28.193 104.423 29.1997 104.423 30.4142ZM153.337 45.4915H134.247V45.5394C134.567 47.4091 135.336 49.0071 136.552 50.3334C137.769 51.6438 139.281 52.299 141.091 52.299C143.62 52.299 145.701 51.1564 147.334 48.8713L152.064 50.9327C150.816 52.9941 149.303 54.4882 147.526 55.4152C145.765 56.3262 143.524 56.7816 140.803 56.7816C136.865 56.7816 133.743 55.5189 131.438 52.9941C129.148 50.4693 127.972 47.3931 127.908 43.7656V43.7176C127.908 39.9464 129.108 36.8143 131.51 34.3214C133.911 31.8125 137.048 30.5581 140.922 30.5581C144.797 30.5581 147.83 31.9963 150.024 34.8727C152.233 37.7331 153.337 41.2727 153.337 45.4915ZM145.053 36.7663C143.916 35.6317 142.42 35.0644 140.562 35.0644C138.706 35.0644 137.217 35.7037 136.096 36.982C134.992 38.2605 134.375 39.8345 134.247 41.7042H146.902C146.806 39.5469 146.189 37.9009 145.053 36.7663ZM163.806 31.1573V35.0644C164.815 33.4664 165.976 32.3158 167.288 31.6128C168.617 30.9096 170.21 30.5581 172.067 30.5581C175.188 30.5581 177.438 31.5328 178.814 33.4824C180.191 35.432 180.879 37.9089 180.879 40.9131V56.1822H174.636V42.0398C174.636 37.9489 172.931 35.9034 169.521 35.9034C167.617 35.9034 166.208 36.4787 165.295 37.6292C164.399 38.7798 163.951 40.266 163.951 42.0877V56.1822H157.755V31.1573H163.806ZM206.237 56.1822V52.299C204.123 55.2391 201.322 56.7096 197.833 56.7096C194.343 56.7096 191.549 55.4632 189.452 52.9701C187.355 50.4613 186.306 47.3132 186.306 43.5259V43.478C186.306 39.3871 187.451 36.215 189.74 33.9618C192.03 31.6926 194.807 30.5581 198.072 30.5581C201.338 30.5581 203.987 31.9004 206.021 34.585V20.8262H212.264V56.1822H206.237ZM206.117 43.6218C206.117 41.1289 205.46 39.1873 204.147 37.797C202.851 36.4068 201.194 35.7116 199.177 35.7116C197.16 35.7116 195.567 36.4707 194.399 37.9888C193.23 39.5069 192.646 41.4884 192.646 43.9334C192.646 46.3784 193.294 48.288 194.591 49.6623C195.887 51.0366 197.536 51.7237 199.537 51.7237C201.538 51.7237 203.115 50.9566 204.268 49.4226C205.436 47.8725 206.053 45.9549 206.117 43.6697V43.6218ZM228.088 56.1822V27.322H217.211V21.5692H245.69V27.322H234.835V56.1822H228.088ZM243.889 43.7176C243.889 39.4989 245.201 36.255 247.827 33.9858C250.452 31.7006 253.717 30.5581 257.624 30.5581C261.53 30.5581 264.667 31.8045 267.036 34.2974C269.406 36.7743 270.59 39.8824 270.59 43.6218V43.6697C270.463 47.8245 269.125 51.0525 266.58 53.3537C264.035 55.6389 260.777 56.7816 256.807 56.7816C252.837 56.7816 249.692 55.4872 247.37 52.8982C245.049 50.3095 243.889 47.2652 243.889 43.7656V43.7176ZM250.18 43.7176C250.18 46.4662 250.86 48.5197 252.221 49.878C253.581 51.2363 255.367 51.9154 257.576 51.9154C259.785 51.9154 261.458 51.1324 262.594 49.5664C263.731 48.0003 264.299 45.9709 264.299 43.478C264.299 40.9851 263.627 39.0275 262.282 37.6053C260.937 36.1831 259.176 35.4719 256.999 35.4719C254.822 35.4719 253.141 36.2469 251.956 37.797C250.772 39.3471 250.18 41.3047 250.18 43.6697V43.7176ZM276.137 56.1822V20.8262H282.453V41.7042L292.178 31.1573H299.79L290.208 40.9611L300.63 56.1822H293.354L285.982 45.1798C284.51 46.7779 283.333 47.9924 282.453 48.8233V56.1822H276.137ZM327.812 45.4915H308.722V45.5394C309.042 47.4091 309.811 49.0071 311.028 50.3334C312.244 51.6438 313.757 52.299 315.566 52.299C318.096 52.299 320.176 51.1564 321.809 48.8713L326.54 50.9327C325.291 52.9941 323.778 54.4882 322.001 55.4152C320.24 56.3262 317.999 56.7816 315.278 56.7816C311.34 56.7816 308.218 55.5189 305.913 52.9941C303.624 50.4693 302.447 47.3931 302.383 43.7656V43.7176C302.383 39.9464 303.584 36.8143 305.985 34.3214C308.386 31.8125 311.524 30.5581 315.398 30.5581C319.272 30.5581 322.306 31.9963 324.498 34.8727C326.708 37.7331 327.812 41.2727 327.812 45.4915ZM319.528 36.7663C318.392 35.6317 316.894 35.0644 315.038 35.0644C313.18 35.0644 311.692 35.7037 310.571 36.982C309.466 38.2605 308.851 39.8345 308.722 41.7042H321.377C321.281 39.5469 320.665 37.9009 319.528 36.7663ZM338.282 31.1573V35.0644C339.291 33.4664 340.451 32.3158 341.764 31.6128C343.093 30.9096 344.685 30.5581 346.542 30.5581C349.664 30.5581 351.913 31.5328 353.29 33.4824C354.666 35.432 355.355 37.9089 355.355 40.9131V56.1822H349.111V42.0398C349.111 37.9489 347.407 35.9034 343.997 35.9034C342.092 35.9034 340.683 36.4787 339.77 37.6292C338.874 38.7798 338.426 40.266 338.426 42.0877V56.1822H332.231V31.1573H338.282ZM374.397 35.7116C373.292 35.1523 372.204 34.8727 371.131 34.8727C370.058 34.8727 369.114 35.1444 368.298 35.6877C367.481 36.231 367.073 36.9181 367.073 37.7491C367.073 38.5801 367.705 39.2432 368.97 39.7386C370.234 40.234 371.963 40.7214 374.156 41.2008C376.91 41.9199 378.959 42.8388 380.304 43.9574C381.648 45.076 382.321 46.634 382.321 48.6315C382.321 50.629 381.769 52.259 380.664 53.5215C379.575 54.7678 378.27 55.6149 376.75 56.0622C375.245 56.51 373.564 56.7336 371.707 56.7336C366.008 56.7336 362.206 54.7678 360.301 50.8368C362.27 49.894 363.823 49.1589 364.96 48.6315C366.432 51.1884 368.778 52.4588 371.995 52.4428C373.308 52.4428 374.373 52.1791 375.189 51.6518C376.006 51.1084 376.414 50.3973 376.414 49.5184C376.414 48.6236 376.038 47.9844 375.285 47.6008C374.533 47.2014 372.98 46.658 370.627 45.9709C368.274 45.2837 367.025 44.9242 366.881 44.8922C364.976 44.1731 363.575 43.2942 362.678 42.2555C361.782 41.2008 361.334 39.8505 361.334 38.2045V38.1566C361.526 33.1228 364.864 30.606 371.347 30.606C376.39 30.606 379.816 32.2919 381.624 35.6637C380.648 36.191 379.143 36.9741 377.11 38.0128C376.422 37.038 375.517 36.2709 374.397 35.7116Z" fill="black"/>
<path d="M56.1172 39.0002C56.1172 54.2734 43.555 66.6549 28.0586 66.6549C12.5623 66.6549 0 54.2734 0 39.0002C0 23.727 12.5623 11.3457 28.0586 11.3457C43.555 11.3457 56.1172 23.727 56.1172 39.0002ZM11.504 39.0002C11.504 48.0114 18.9158 55.3165 28.0586 55.3165C37.2015 55.3165 44.6132 48.0114 44.6132 39.0002C44.6132 29.9891 37.2015 22.6841 28.0586 22.6841C18.9158 22.6841 11.504 29.9891 11.504 39.0002Z" fill="url(#paint0_radial_226_582)"/>
<path d="M78.1379 39C78.1379 60.5389 60.646 78 39.069 78C17.4917 78 0 60.5389 0 39C0 17.4609 17.4917 0 39.069 0C60.646 0 78.1379 17.4609 78.1379 39ZM11.7207 39C11.7207 54.0774 23.9649 66.3 39.069 66.3C54.173 66.3 66.4172 54.0774 66.4172 39C66.4172 23.9226 54.173 11.7 39.069 11.7C23.9649 11.7 11.7207 23.9226 11.7207 39Z" fill="url(#paint1_radial_226_582)"/>
<defs>
<radialGradient id="paint0_radial_226_582" cx="0" cy="0" r="1" gradientUnits="userSpaceOnUse" gradientTransform="translate(56.1172 39.0002) rotate(-180) scale(56.1172 55.3091)">
<stop stop-color="#54F0FD"/>
<stop offset="1" stop-color="#C342F7"/>
</radialGradient>
<radialGradient id="paint1_radial_226_582" cx="0" cy="0" r="1" gradientUnits="userSpaceOnUse" gradientTransform="translate(0 39) scale(78.1379 78)">
<stop stop-color="#54F0FD"/>
<stop offset="1" stop-color="#C342F7"/>
</radialGradient>
</defs>
</svg>
