<svg width="87" height="87" viewBox="0 0 87 87" fill="none" xmlns="http://www.w3.org/2000/svg">
<rect width="87" height="87" fill="#1E1E1E"/>
<g id="Sendstake">
<rect width="1440" height="810" transform="translate(-677 -223)" fill="#FCFCFD"/>
<g id="Group 1">
<g id="stsend">
<path id="Vector" d="M62.4818 43.5005C62.4818 60.5359 48.4948 74.3461 31.2409 74.3461C13.987 74.3461 0 60.5359 0 43.5005C0 26.465 13.987 12.655 31.2409 12.655C48.4948 12.655 62.4818 26.465 62.4818 43.5005ZM12.8088 43.5005C12.8088 53.5514 21.0611 61.6994 31.2409 61.6994C41.4207 61.6994 49.673 53.5514 49.673 43.5005C49.673 33.4496 41.4207 25.3017 31.2409 25.3017C21.0611 25.3017 12.8088 33.4496 12.8088 43.5005Z" fill="#8363EE"/>
<path id="Vector_2" d="M87 43.5C87 67.5242 67.5242 87 43.5 87C19.4756 87 0 67.5242 0 43.5C0 19.4756 19.4756 0 43.5 0C67.5242 0 87 19.4756 87 43.5ZM13.05 43.5C13.05 60.3171 26.6829 73.95 43.5 73.95C60.3171 73.95 73.95 60.3171 73.95 43.5C73.95 26.6829 60.3171 13.05 43.5 13.05C26.6829 13.05 13.05 26.6829 13.05 43.5Z" fill="#8363EE"/>
</g>
</g>
</g>
</svg>
