<svg width="21" height="20" viewBox="0 0 21 20" fill="none" xmlns="http://www.w3.org/2000/svg">
<path d="M14.8031 6.66668V4.16668C14.8031 3.94566 14.7153 3.7337 14.559 3.57742C14.4027 3.42114 14.1907 3.33334 13.9697 3.33334H5.63639C5.19437 3.33334 4.77044 3.50894 4.45788 3.8215C4.14532 4.13406 3.96973 4.55798 3.96973 5.00001M3.96973 5.00001C3.96973 5.44204 4.14532 5.86596 4.45788 6.17852C4.77044 6.49108 5.19437 6.66668 5.63639 6.66668H15.6364C15.8574 6.66668 16.0694 6.75447 16.2256 6.91075C16.3819 7.06703 16.4697 7.279 16.4697 7.50001V10M3.96973 5.00001V15C3.96973 15.442 4.14532 15.866 4.45788 16.1785C4.77044 16.4911 5.19437 16.6667 5.63639 16.6667H15.6364C15.8574 16.6667 16.0694 16.5789 16.2256 16.4226C16.3819 16.2663 16.4697 16.0544 16.4697 15.8333V13.3333M17.3031 10V13.3333H13.9697C13.5277 13.3333 13.1038 13.1577 12.7912 12.8452C12.4787 12.5326 12.3031 12.1087 12.3031 11.6667C12.3031 11.2246 12.4787 10.8007 12.7912 10.4882C13.1038 10.1756 13.5277 10 13.9697 10H17.3031Z" stroke="#8363EE" stroke-width="2" stroke-linecap="round" stroke-linejoin="round"/>
</svg>
