<svg width="100" height="100" viewBox="0 0 100 100" fill="none" xmlns="http://www.w3.org/2000/svg">
<rect width="100" height="100" rx="50" fill="#1A1A1A"/>
<path d="M74.2385 61.3048L68.454 56.7366C67.4828 55.9694 66.0691 56.2872 65.4974 57.3933C64.0777 60.1366 61.8529 62.3966 59.3036 63.9386L53.2411 57.7823C52.9151 57.451 52.4727 57.2647 52.011 57.2647C51.5495 57.2647 51.1071 57.451 50.7812 57.7823L44.3312 64.3319C39.3159 61.6341 35.8908 56.2792 35.8908 50.1255C35.8908 41.2669 42.9885 34.0594 51.7121 34.0594C56.988 34.0594 62.0426 36.3923 65.3839 41.9992C65.9826 43.0041 67.3001 43.2713 68.2327 42.5771L73.8461 38.3995C74.6792 37.7798 74.9003 36.6107 74.3514 35.7221C69.4821 27.8293 60.9674 23 51.7121 23C36.9827 23 25 35.1681 25 50.1255C25 65.0829 36.9827 77.2511 51.7121 77.2511C56.7476 77.2511 61.6536 75.8192 65.9014 73.1115C69.5319 70.7963 72.555 67.637 74.7247 63.9067C75.2299 63.0386 75.0226 61.9235 74.2385 61.3048ZM47.8883 65.715L52.0103 61.5292L55.9169 65.4965C54.5252 65.9493 53.1021 66.1917 51.7121 66.1917C50.3939 66.1917 49.114 66.0247 47.8883 65.715ZM51.5916 45.9666C51.5853 46.0988 51.5846 47.8565 55.9222 50.8588C59.1587 53.0996 57.6428 57.5629 56.98 59.0305C56.6742 58.1169 56.147 56.874 55.2211 55.5761C54.1082 54.0148 52.8721 53.0106 52.0093 52.4168C51.1018 52.9814 49.6132 54.0803 48.4189 55.9694C47.696 57.1137 47.2983 58.2029 47.071 59.0305L47.0683 59.0259C45.7483 55.4217 46.216 53.6214 46.898 52.6431C47.4329 51.8753 48.4049 50.8144 48.4049 50.8144C49.2539 49.9569 50.1498 49.1223 51.0119 47.426C51.5415 46.3829 51.5879 46.0207 51.5916 45.9666Z" fill="white"/>
<path d="M48.4049 50.8342C48.4049 50.8342 47.4305 51.8941 46.8929 52.6613C46.2088 53.6388 45.7405 55.4379 47.0639 59.0392C39.52 52.3597 47.2884 45.5428 47.1333 46.0618C46.5561 47.9911 48.4049 50.8342 48.4049 50.8342ZM50.2448 48.7343C50.5086 48.3557 50.7684 47.9307 51.0165 47.4439C51.5971 46.3056 51.5988 45.9765 51.5988 45.9765C51.5988 45.9765 51.4157 47.7524 55.9425 50.874C59.1893 53.1128 57.6686 57.573 57.0037 59.0392C57.0037 59.0392 60.8355 56.5679 60.2916 52.3936C59.6383 47.3719 56.952 47.8251 54.956 44.1058C53.0941 40.6366 56.274 37.8575 56.274 37.8575C56.274 37.8575 52.0173 37.626 50.0684 42.1526C48.0145 46.9222 50.2448 48.7343 50.2448 48.7343Z" fill="#FF6D01"/>
</svg>
