<?xml version="1.0" encoding="UTF-8"?>
<svg id="Layer_1" xmlns="http://www.w3.org/2000/svg" viewBox="0 0 200 200">
    <circle cx="100" cy="100" r="94" style="fill:#bcbec0; stroke:#939598; stroke-miterlimit:10; stroke-width:12px;"/>
    <g>
        <circle cx="101.19" cy="121.74" r="5.1" style="fill:#939598;"/>
        <path d="M104.58,109.84h-6.8v-13.59h6.8c3.75,0,6.8-3.04,6.8-6.8s-3.04-6.8-6.8-6.8h-6.8c-3.75,0-6.79,3.04-6.8,6.8v1.7h-6.8v-1.7c0-7.5,6.09-13.58,13.59-13.59h6.8c7.51,0,13.59,6.09,13.59,13.59s-6.09,13.59-13.59,13.59v6.8Z"
              style="fill:#939598;"/>
        <path d="M101.19,147.22c-1.88,0-3.68-.74-5.01-2.07l-40.5-40.5c-2.76-2.77-2.76-7.25,0-10.01l40.5-40.5c2.77-2.76,7.25-2.76,10.01,0l40.5,40.5c2.76,2.77,2.76,7.25,0,10.01l-40.5,40.5c-1.33,1.33-3.13,2.07-5.01,2.07Zm0-88.35c-.08,0-.15,.03-.2,.08l-40.5,40.5c-.11,.11-.11,.29,0,.4l40.5,40.5c.11,.11,.29,.11,.4,0l40.5-40.5c.11-.11,.11-.29,0-.4l-40.5-40.5c-.05-.05-.13-.08-.2-.08Z"
              style="fill:#939598;"/>
    </g>
</svg>