<svg width="36" height="36" viewBox="0 0 36 36" fill="none" xmlns="http://www.w3.org/2000/svg">
    <rect width="36" height="36" rx="18" fill="white" />
    <path
        d="M24.1091 18.0001C24.1091 23.4828 19.6075 27.9275 14.0545 27.9275C8.50158 27.9275 4 23.4828 4 18.0001C4 12.5175 8.50158 8.07288 14.0545 8.07288C19.6075 8.07288 24.1091 12.5175 24.1091 18.0001ZM8.12236 18.0001C8.12236 21.2349 10.7783 23.8573 14.0545 23.8573C17.3308 23.8573 19.9867 21.2349 19.9867 18.0001C19.9867 14.7654 17.3308 12.1431 14.0545 12.1431C10.7783 12.1431 8.12236 14.7654 8.12236 18.0001Z"
        fill="url(#paint0_radial_1544_155)" />
    <path
        d="M32 18C32 25.7319 25.7319 32 18 32C10.268 32 4 25.7319 4 18C4 10.268 10.268 4 18 4C25.7319 4 32 10.268 32 18ZM8.2 18C8.2 23.4124 12.5876 27.8 18 27.8C23.4124 27.8 27.8 23.4124 27.8 18C27.8 12.5876 23.4124 8.2 18 8.2C12.5876 8.2 8.2 12.5876 8.2 18Z"
        fill="url(#paint1_radial_1544_155)" />
    <defs>
        <radialGradient id="paint0_radial_1544_155" cx="0" cy="0" r="1" gradientUnits="userSpaceOnUse"
            gradientTransform="translate(24.1091 18.0001) rotate(180) scale(20.1091 19.8545)">
            <stop stop-color="#54F0FD" />
            <stop offset="1" stop-color="#C342F7" />
        </radialGradient>
        <radialGradient id="paint1_radial_1544_155" cx="0" cy="0" r="1" gradientUnits="userSpaceOnUse"
            gradientTransform="translate(4 18) scale(28)">
            <stop stop-color="#54F0FD" />
            <stop offset="1" stop-color="#C342F7" />
        </radialGradient>
    </defs>
</svg>